<svg xmlns="http://www.w3.org/2000/svg" width="24" height="10.696" viewBox="0 0 24 10.696"><defs><style>.a{fill:rgba(0,0,0,0.6);}</style></defs><path class="a" d="M48.9,62.243V59.5H47.8v2.743Z" transform="translate(-36.404 -51.546)"/><path class="a" d="M83.3,44.768l1.947,1.947c.274-.247.521-.494.8-.768L84.1,44A10.325,10.325,0,0,1,83.3,44.768Z" transform="translate(-62.043 -40.297)"/><path class="a" d="M68.015,55A6.549,6.549,0,0,1,67,55.411l1.042,2.551c.357-.137.686-.274,1.015-.411Z" transform="translate(-50.273 -48.281)"/><path class="a" d="M9.443,44.468c-.274-.247-.521-.494-.8-.768L6.7,45.647a10.513,10.513,0,0,0,.8.768Z" transform="translate(-6.7 -40.08)"/><path class="a" d="M26.342,54.8,25.3,57.323a6.549,6.549,0,0,0,1.015.411l1.042-2.551A6.443,6.443,0,0,1,26.342,54.8Z" transform="translate(-20.14 -48.135)"/><path class="a" d="M20.967,37.357a12.783,12.783,0,0,0,11.012-6.308l-.971-.549a11.681,11.681,0,0,1-20.138,0l-.971.549A12.943,12.943,0,0,0,20.967,37.357Z" transform="translate(-9.022 -30.5)"/></svg>